<svg xmlns="http://www.w3.org/2000/svg"  viewBox="0 0 24 24" width="384px" height="384px" baseProfile="basic"><linearGradient id="X11SJzz0wjZfSXGy6xdZEa" x1="7.482" x2="16.518" y1="4.982" y2="14.018" gradientUnits="userSpaceOnUse"><stop offset="0" stop-color="#fff" stop-opacity=".6"/><stop offset="1" stop-color="#fff" stop-opacity=".3"/></linearGradient><path fill="url(#X11SJzz0wjZfSXGy6xdZEa)" d="M22.268,4.732c-0.976-0.976-2.559-0.976-3.536,0L9,14.464l-3.732-3.732 c-0.976-0.976-2.559-0.976-3.536,0s-0.976,2.559,0,3.536l4.645,4.645c1.449,1.449,3.797,1.449,5.246,0L22.268,8.268 C23.244,7.291,23.244,5.708,22.268,4.732z"/><linearGradient id="X11SJzz0wjZfSXGy6xdZEb" x1="7.482" x2="16.518" y1="4.982" y2="14.018" gradientUnits="userSpaceOnUse"><stop offset="0" stop-color="#fff" stop-opacity=".6"/><stop offset=".493" stop-color="#fff" stop-opacity="0"/><stop offset=".997" stop-color="#fff" stop-opacity=".3"/></linearGradient><path fill="url(#X11SJzz0wjZfSXGy6xdZEb)" d="M20.5,4.5 c0.534,0,1.036,0.208,1.414,0.586C22.292,5.464,22.5,5.966,22.5,6.5c0,0.534-0.208,1.036-0.586,1.414L11.269,18.559 c-0.606,0.606-1.412,0.94-2.269,0.94s-1.663-0.334-2.269-0.94l-4.645-4.645C1.708,13.536,1.5,13.034,1.5,12.5 c0-0.534,0.208-1.036,0.586-1.414C2.464,10.708,2.966,10.5,3.5,10.5s1.036,0.208,1.414,0.586l3.732,3.732L9,15.172l0.354-0.354 l9.732-9.732C19.464,4.708,19.966,4.5,20.5,4.5 M20.5,4c-0.64,0-1.28,0.244-1.768,0.732L9,14.464l-3.732-3.732 C4.78,10.244,4.14,10,3.5,10s-1.28,0.244-1.768,0.732c-0.976,0.976-0.976,2.559,0,3.536l4.645,4.645 C7.101,19.637,8.051,19.999,9,19.999s1.899-0.362,2.623-1.086L22.268,8.268c0.976-0.976,0.976-2.559,0-3.536 C21.78,4.244,21.14,4,20.5,4L20.5,4z"/></svg>